<?xml version="1.0" encoding="UTF-8"?>
<svg width="45px" height="45px" viewBox="0 0 45 45" version="1.1" xmlns="http://www.w3.org/2000/svg" xmlns:xlink="http://www.w3.org/1999/xlink">
    <!-- Generator: Sketch 48.2 (47327) - http://www.bohemiancoding.com/sketch -->
    <title>right-arrow</title>
    <desc>Created with Sketch.</desc>
    <defs></defs>
    <g id="Page-1" stroke="none" stroke-width="1" fill="none" fill-rule="evenodd">
        <g id="right-arrow" transform="translate(22.500000, 22.500000) rotate(180.000000) translate(-22.500000, -22.500000) translate(1.000000, 1.000000)">
            <circle id="Oval" stroke="#F1F1F1" fill="#F1F1F1" cx="21.5" cy="21.5" r="21.5"></circle>
            <path d="M16.4368803,20.5923358 L22.8742993,14.4237861 C23.4645863,13.858738 24.4302663,13.858738 25.0198818,14.4237861 L25.5577884,14.9386364 C26.1474039,15.503041 26.1474039,16.4291279 25.5577884,16.994176 L20.6454454,21.7018381 L25.5577884,26.4095002 C26.1474039,26.9745483 26.1474039,27.9006352 25.5577884,28.4650398 L25.0198818,28.9798901 C24.4302663,29.5455818 23.4645863,29.5455818 22.8742993,28.9798901 L16.4368803,22.8100533 C16.1199116,22.5075788 15.9795589,22.1008471 16.0023914,21.7018381 C15.9795589,21.3028292 16.1199116,20.8960974 16.4368803,20.5923358 Z" id="arrow" fill="#515151" fill-rule="nonzero"></path>
        </g>
    </g>
</svg>